<svg width="143" height="144" viewBox="0 0 143 144" fill="none" xmlns="http://www.w3.org/2000/svg">
<rect x="18.5" y="14.1914" width="107" height="119" rx="9.5" fill="black" stroke="#D10071"/>
<rect x="112.169" y="59.6914" width="5" height="42" rx="2.5" transform="rotate(83.9102 112.169 59.6914)" fill="#0490BD" fill-opacity="0.27"/>
<rect x="103" y="89.6914" width="5" height="42" rx="2.5" transform="rotate(90 103 89.6914)" fill="#0490BD" fill-opacity="0.48"/>
<rect x="102" y="112.691" width="5" height="42" rx="2.5" transform="rotate(90 102 112.691)" fill="#0490BD"/>
<rect x="77.6211" y="33.6709" width="17" height="17" rx="1" transform="rotate(77.8807 77.6211 33.6709)" fill="#013444" fill-opacity="0.38"/>
<path d="M115.757 14.6916C116.198 14.6916 116.587 14.9809 116.714 15.4036L117.878 19.2748C118.046 19.834 117.701 20.4178 117.13 20.5404L102.489 23.6844C101.972 23.7954 101.458 23.485 101.316 22.9759L99.3548 15.9605C99.1766 15.3229 99.6559 14.6913 100.318 14.6913L115.757 14.6916Z" fill="#013444" fill-opacity="0.44"/>
<rect x="64.9041" y="59.7061" width="17" height="17" rx="1" transform="rotate(83.9102 64.9041 59.7061)" fill="#0490BD" fill-opacity="0.27"/>
<rect x="56" y="84.6914" width="17" height="17" rx="1" transform="rotate(90 56 84.6914)" fill="#0490BD" fill-opacity="0.48"/>
<rect x="55" y="107.691" width="17" height="17" rx="1" transform="rotate(90 55 107.691)" fill="#0490BD"/>
<rect x="124.624" y="28.6914" width="5" height="42" rx="2.5" transform="rotate(77.8807 124.624 28.6914)" fill="#013444" fill-opacity="0.38"/>
</svg>
